<?xml version="1.0" encoding="UTF-8"?>
<svg viewBox="0 0 708.6614 708.6614" xmlns="http://www.w3.org/2000/svg">
 <path d="m255 217.2c-4.7158 2.7226-130.93 94.301-146.15 105.66s-28.383 22.707-29.202 25.118c-1.5571 4.5863 4.1572 45.247 6.9884 49.745 0.89855 1.4274 14.785 7.7169 30.824 13.968s30.659 13.602 32.446 16.418c2.8218 4.4478 13.161 9.8018 48.669 24.873 4.3927 1.8644 26.622 11.416 49.418 21.197s43.911 17.766 46.922 17.766c8.3739 0 6.5262-6.7505-2.4959-9.0668-4.5792-1.1757-7.9866-5.2482-7.9867-9.6794 0-9.0803-6.146-14.662-19.967-17.889-12.098-2.8245-26.854-12.842-23.586-16.051 1.3-1.2764 10.692 0.71787 20.84 4.4109 20.051 7.2964 26.982 5.182 18.22-5.3911-6.3197-7.6258-5.9657-7.5694 23.461 5.0235l16.972 7.3515v52.686l14.975 6.3713c8.2363 3.5171 18.025 7.9494 21.839 9.9245 10.319 5.3442 11.107 4.7782 11.106-9.3119 0-11.846-1.7446-13.605-20.341-21.319-24.321-10.089-23.47-19.136 0.99836-10.66 20.402 7.0672 19.343 7.2711 19.343-2.0829 0-4.3129 1.7754-7.8416 3.9934-7.8416 5.1927 0 24.322-40.386 20.716-43.741-4.3254-4.0242-185.74-75.983-196.92-73.882-9.1365 1.7156-47.421-16.176-47.421-20.094 0-1.8053 19.094-17.8 42.43-35.655s51.071-39.085 61.648-47.172 21.209-14.703 23.711-14.703c6.3312 0 139.52 43.012 151.75 49.01 5.4909 2.6928 40.533 15.105 77.871 27.568s69.957 24.17 72.505 26.098c3.2607 2.4675-0.06343 7.7832-11.231 18.011-16.161 14.801-34.369 30.034-48.17 43.006-34.466 32.396-62.804 55.871-67.388 55.871-2.1066 0-14.824-4.4144-28.328-9.802s-25.117-9.4015-25.707-8.8218c-2.8961 2.8434-17.471 39.475-17.471 43.864 0 2.7671 12.579 10.526 27.954 17.276 25.631 11.252 27.954 13.338 27.954 24.137 0 13.824-2.9848 14.294-24.335 4.1658-8.7734-4.1618-21.448-8.7128-28.203-10.17-21.05-4.5392-11.394 5.6836 16.722 17.766 14.206 6.1047 29.193 11.239 33.32 11.395s14.909-6.1573 23.96-14.09c23.876-20.925 107.31-96.844 141.14-128.41l29.077-27.078v-22.422c0-13.295-2.0264-23.874-4.9917-26.098-2.7455-2.0588-35.541-13.828-72.879-26.22s-79.568-26.636-93.844-31.611-36.29-12.125-48.919-15.806c-22.521-6.5646-94.852-29.585-112.6-34.587-11.116-3.1334-16.75-4.476-21.251-5.0519-7.039-0.90052-16.071 4.691-18.381 6.0248zm12.837 47.337c-5.0329 0-20.143 11.201-58.278 43.006-7.1382 5.9533-12.978 11.629-12.978 12.743 0 2.0662 15.58 8.5816 29.95 12.498 7.1243 1.9414 7.9869 0.28374 7.9867-15.316 0-12.843 2.3432-19.822 8.8603-26.22 12.228-12.006 15.268-6.8799 5.3661 9.0668-12.143 19.556-10.514 25.614 9.609 35.655 9.8067 4.8933 17.537 10.709 17.221 12.865s2.8218 4.4807 6.9884 5.2686c6.6566 1.2587 6.8616 0.73189 1.9967-5.0235-5.0879-6.0191-4.5944-6.2017 6.1148-1.7153 16.064 6.7297 22.291 12.832 9.7338 9.5569-9.5945-2.5026-9.6959-2.4165-2.2463 3.4307 4.2634 3.3463 9.782 6.1262 12.355 6.1262s17.069 4.9154 32.197 11.027c31.995 12.927 51.083 18.257 47.92 13.233-1.2157-1.9314 2.3128-2.7334 7.7371-1.7153s9.8587 4.4024 9.8587 7.474 7.6373 8.9154 16.972 12.988c20.344 8.8751 33.556 9.692 40.682 2.6955 2.8956-2.8431 11.148-9.8411 18.22-15.683l12.854-10.66-5.8652-17.521c-6.2803-18.73-5.1298-20.139 10.857-12.988 7.8566 3.5146 9.5979 6.4698 7.6125 12.743-2.5532 8.0671-2.5482 8.1131 5.8652 0.73516 14.671-12.865 15.846-12.064-39.31-32.469-20.28-7.5025-65.715-22.746-79.867-26.833-1.0983-0.31713-7.3877-2.6959-13.977-5.2686s-17.371-6.5054-23.96-8.8218-15.574-5.8237-19.967-7.7191c-17.093-7.3755-65.215-23.157-70.508-23.157zm15.849 19.604c5.1417-0.03348 8.1152 1.7344 6.7388 3.9208-2.9678 4.7148-2.5527 4.7147-9.9834 0-4.8191-3.0577-4.1735-3.8724 3.2446-3.9208zm13.727 0.9802c0.23724-0.61155 2.2013 0.45101 6.2396 2.573 4.5914 2.4126 28.615 11.571 53.411 20.339 84.753 29.97 99.086 35.51 99.085 39.085 0 4.6171-2.7611 4.6077-12.23-0.36759-17.304-9.0926-40.827 14.896-31.448 32.101 2.1609 3.9642 3.4966 7.1843 2.8703 7.1064s-10.108-3.4442-21.09-7.474c-106.86-39.214-125.24-47.295-107.32-47.295 10.029 0 21.464-11.745 21.464-22.054 0-4.2024-2.9088-11.767-6.4892-16.786-3.1491-4.4143-4.7298-6.6174-4.4926-7.229zm-19.842 19.236c7.6769-0.09257 15.832 1.8133 19.093 5.7587 4.926 5.9584 4.9746 6.3436-0.24959 3.1856-7.9128-4.7833-27.954-5.75-27.954-1.3478 0 1.9041-1.9883 3.5532-4.3677 3.5532s-3.5226-2.2055-2.6206-4.901c1.3387-4.0009 8.4214-6.1562 16.098-6.2488zm71.506 7.229c-6.4313 0-20.716 10.812-20.716 15.683 0 1.5292 8.1393 5.824 18.095 9.5569 15.04 5.6393 19.099 5.981 24.335 1.7154 9.3597-7.6266 23.63-8.357 29.451-1.4703 4.2651 5.0457 3.8093 7.0765-2.4958 11.762-4.6355 3.445-5.5254 5.6824-2.3712 5.7587 8.1552 0.19709 22.926-15.085 18.594-19.236-4.9501-4.7439-56.913-23.77-64.892-23.77zm-30.699 47.172c2.1964 0 6.689 1.7078 9.9834 3.7983s4.1932 3.7983 1.9967 3.7983-6.6888-1.7079-9.9834-3.7983-4.1929-3.7982-1.9967-3.7983zm130.66 0.9802c3.4359-0.01129 6.4292 1.347 10.982 4.0433 10.285 6.0918 16.496 26.22 8.1116 26.22-2.4719 0-3.4509-1.8089-2.1214-3.9208s0.56095-7.283-1.7472-11.517c-3.1935-5.8585-7.7118-7.4379-19.093-6.7388-13.007 0.79893-15.124 2.282-16.223 11.517-1.602 13.464-8.7354 13.964-8.7354 0.61261 0-7.8342 3.2366-11.286 14.85-16.051 6.6625-2.7332 10.541-4.1545 13.977-4.1658zm-356.28 2.9406 18.969 6.9839c10.433 3.8974 22.113 6.4885 25.957 5.6361 5.9447-1.3184 6.9885 1.3354 6.9884 18.256 0 10.94-0.44915 19.789-0.99834 19.604s-12.23-5.4714-25.957-11.762c-23.607-10.819-24.958-12.204-24.959-25.118v-13.6zm245.59 3.9208c2.1964 0 6.689 1.7078 9.9834 3.7983s4.1932 3.7983 1.9967 3.7983-6.6888-1.7079-9.9834-3.7983-4.1929-3.7982-1.9967-3.7983zm-156.24 4.1659c1.2959-0.47213 3.6614 0.28376 8.1115 1.9604 3.4615 1.3042 5.3335 3.9507 4.1182 5.8812-3.6101 5.7352-13.727 4.0312-13.727-2.328 0-3.298 0.20159-5.0415 1.4975-5.5136zm180.2 5.3911c0.67007-0.27478 1.967-0.17938 3.7438 0.4901 3.4086 1.2843 6.2398 3.0733 6.2396 3.9208 0 3.1755-7.6382 1.3976-9.9834-2.328-0.69956-1.1112-0.67008-1.8081 0-2.0829zm-139.89 12.988c2.0922-0.1988 4.1744 1.023 5.1165 3.7983 0.91516 2.6955-1.331 4.9009-4.9917 4.901s-6.0982-1.7644-5.3661-3.9208c1.005-2.9603 3.1491-4.5797 5.2413-4.7785zm231.99 2.8181c1.0855 0.27928 1.747 1.0385 1.747 2.0829 0 2.0888-2.6953 3.7982-5.99 3.7982s-5.99-0.74527-5.9902-1.5928 2.6956-2.557 5.9902-3.7983c1.6472-0.62062 3.1573-0.76939 4.243-0.4901zm-262.81 6.3713c3.2646 0.38037 9.9684 2.9194 22.213 7.9641 25.5 10.506 24.623 9.8811 19.967 15.928-2.1157 2.7477-3.4383 11.64-2.995 19.726 0.8883 16.201-1.2392 16.953-21.215 7.5965-7.8247-3.6651-12.978-9.0466-12.978-13.478 0-5.1622-6.7475-10.276-22.588-17.153-15.508-6.7338-21.305-11.061-18.469-13.845s8.0879-2.0559 16.722 2.328c13.636 6.9231 21.287 5.3268 17.721-3.7983-1.4815-3.7907-1.6423-5.6489 1.6223-5.2686zm12.604 15.193c-5.3711 0-4.4801 21.086 1.1231 26.588 5.6067 5.5048 15.225 6.2853 15.225 1.2252 0-1.9257-2.6954-4.5174-5.99-5.7587s-5.99-4.0246-5.9901-6.2488 2.6956-4.0434 5.9901-4.0433 5.9902-1.6275 5.99-3.5532c0-3.502-9.438-8.2092-16.348-8.2092zm39.809 3.9208c2.1964 0 5.1319 1.7643 6.4892 3.9208s0.57413 3.9207-1.6223 3.9208-5.0069-1.7644-6.3644-3.9208-0.69892-3.9208 1.4975-3.9208zm14.476 7.9641c2.1964 0 6.689 1.7078 9.9834 3.7983s4.1932 3.7983 1.9967 3.7983-6.6888-1.7079-9.9834-3.7983-4.1929-3.7982-1.9967-3.7983zm41.057 25.485c-1.6285-0.31339-3.1174-0.16405-3.9934 0.36758-3.8534 2.3382-4.233 22.554-0.49916 26.22 1.4642 1.4376 6.2404 2.6955 10.607 2.6955 7.7656 0 7.7841-0.18334 0.49919-8.0866-6.38-6.9216-6.6171-8.609-1.6223-11.762 5.0941-3.216 5.0662-4.1524 0-7.3515-1.5948-1.0071-3.3632-1.7695-4.9917-2.0829zm60.807-6.7231c-0.57629-1.2336-2.7934-2.3413-7.1476-4.2453-3.387-1.481-6.6167-0.90919-7.1476 1.2996-1.5777 6.5617 6.8033 12.381 11.383 7.884 2.3752-2.332 3.4883-3.7048 2.912-4.9384zm-45.525-12.135c-1.2214-1.6796-1.1848-4.0609 0.79204-6.2496 1.9201-2.1259 4.9884-1.3188 6.8188 1.7939s1.4928 6.0674-0.77532 6.5231c-3.1137 0.6256-5.6141-0.38781-6.8355-2.0674z"/>
</svg>
