<?xml version="1.0" encoding="UTF-8"?>
<svg width="1200pt" height="1200pt" version="1.1" viewBox="0 0 1200 1200" xmlns="http://www.w3.org/2000/svg">
 <path d="m600 96c-133.67 0-261.86 53.102-356.38 147.62-94.516 94.52-147.62 222.71-147.62 356.38s53.102 261.86 147.62 356.38c94.52 94.516 222.71 147.62 356.38 147.62s261.86-53.102 356.38-147.62c94.516-94.52 147.62-222.71 147.62-356.38-0.25391-133.59-53.434-261.64-147.9-356.1-94.465-94.465-222.51-147.64-356.1-147.9zm180 519.6-161.04 93c-3.668 2.1133-7.9609 2.8711-12.129 2.1367-4.1719-0.73828-7.9453-2.918-10.664-6.1641-2.7227-3.2422-4.2109-7.3398-4.207-11.574v-58.078l-154.08 88.801-0.003906-0.003906c-3.6758 2.125-7.9883 2.8789-12.168 2.1328-4.1797-0.75-7.9609-2.9492-10.676-6.2188-2.7148-3.2656-4.1875-7.3867-4.1562-11.633v-216c0.039063-6.4102 3.4844-12.316 9.0469-15.508 5.5625-3.1875 12.402-3.1797 17.953 0.027343l154.08 88.801 0.003907-58.32c0.20312-6.3242 3.7148-12.078 9.2461-15.152 5.5352-3.0742 12.273-3.0156 17.754 0.15234l161.04 92.398c3.6719 2.1172 6.4805 5.457 7.9336 9.4375 1.4492 3.9805 1.4492 8.3477 0 12.328-1.4531 3.9805-4.2617 7.3203-7.9336 9.4375z" fill="#868684"/>
</svg>
