<?xml version="1.0" encoding="UTF-8"?>
<svg width="1200pt" height="1200pt" version="1.1" viewBox="0 0 1200 1200" xmlns="http://www.w3.org/2000/svg">
 <path d="m600 96c-133.67 0-261.86 53.102-356.38 147.62-94.516 94.52-147.62 222.71-147.62 356.38s53.102 261.86 147.62 356.38c94.52 94.516 222.71 147.62 356.38 147.62s261.86-53.102 356.38-147.62c94.516-94.52 147.62-222.71 147.62-356.38-0.25391-133.59-53.434-261.64-147.9-356.1-94.465-94.465-222.51-147.64-356.1-147.9zm-48.961 645.6c0 12.859-6.8594 24.746-18 31.176-11.137 6.4297-24.859 6.4297-36 0-11.137-6.4297-18-18.316-18-31.176v-283.2c0-12.859 6.8633-24.746 18-31.176 11.141-6.4297 24.863-6.4297 36 0 11.141 6.4297 18 18.316 18 31.176zm169.92 0c0 12.859-6.8633 24.746-18 31.176-11.141 6.4297-24.863 6.4297-36 0-11.141-6.4297-18-18.316-18-31.176v-283.2c0-12.859 6.8594-24.746 18-31.176 11.137-6.4297 24.859-6.4297 36 0 11.137 6.4297 18 18.316 18 31.176z" fill="#f43d3d"/>
</svg>
