<?xml version="1.0" encoding="UTF-8"?>
<svg width="1200pt" height="1200pt" version="1.1" viewBox="0 0 1200 1200" xmlns="http://www.w3.org/2000/svg">
 <path d="m600 96c-133.67 0-261.86 53.102-356.38 147.62-94.516 94.52-147.62 222.71-147.62 356.38s53.102 261.86 147.62 356.38c94.52 94.516 222.71 147.62 356.38 147.62s261.86-53.102 356.38-147.62c94.516-94.52 147.62-222.71 147.62-356.38-0.25391-133.59-53.434-261.64-147.9-356.1-94.465-94.465-222.51-147.64-356.1-147.9zm183.96 535.2-242.04 139.8c-7.332 4.2344-15.922 5.7461-24.262 4.2734-8.3359-1.4688-15.887-5.832-21.328-12.32-5.4375-6.4883-8.418-14.688-8.4102-23.152v-279.6c-0.007813-8.4648 2.9727-16.664 8.4102-23.152 5.4414-6.4883 12.992-10.852 21.328-12.32 8.3398-1.4727 16.93 0.039063 24.262 4.2734l242.04 139.8c7.3438 4.2266 12.961 10.91 15.863 18.871 2.9023 7.9648 2.9023 16.691 0 24.656-2.9023 7.9609-8.5195 14.645-15.863 18.871z" fill="#f43d3d"/>
</svg>
