<?xml version="1.0" encoding="UTF-8"?>
<svg width="1200pt" height="1200pt" version="1.1" viewBox="0 0 1200 1200" xmlns="http://www.w3.org/2000/svg">
 <path d="m600 96c-133.67 0-261.86 53.102-356.38 147.62-94.516 94.52-147.62 222.71-147.62 356.38s53.102 261.86 147.62 356.38c94.52 94.516 222.71 147.62 356.38 147.62s261.86-53.102 356.38-147.62c94.516-94.52 147.62-222.71 147.62-356.38-0.25391-133.59-53.434-261.64-147.9-356.1-94.465-94.465-222.51-147.64-356.1-147.9zm-175.08 613.2c0 9.7773-5.2148 18.809-13.684 23.695-8.4648 4.8867-18.895 4.8867-27.359 0s-13.68-13.918-13.68-23.695v-218.52c0-9.7734 5.2148-18.809 13.68-23.695s18.895-4.8867 27.359 0c8.4688 4.8867 13.684 13.922 13.684 23.695zm404.88-1.1992c-0.039062 6.4102-3.4844 12.316-9.0469 15.508-5.5625 3.1875-12.402 3.1797-17.953-0.027343l-154.08-88.801v58.078l-0.003906 0.003907c0.003906 4.2305-1.4844 8.332-4.2031 11.574-2.7227 3.2422-6.4961 5.4258-10.668 6.1602-4.168 0.73828-8.4609-0.019532-12.129-2.1367l-161.16-92.758c-3.6719-2.1172-6.4805-5.457-7.9297-9.4375-1.4531-3.9805-1.4531-8.3477 0-12.328 1.4492-3.9805 4.2578-7.3203 7.9297-9.4375l161.16-92.398c3.668-2.1172 7.9609-2.875 12.129-2.1367 4.1719 0.73438 7.9453 2.918 10.668 6.1602 2.7188 3.2461 4.207 7.3438 4.2031 11.578v58.078l154.08-88.801h0.003906c5.4961-3.1758 12.262-3.2227 17.801-0.11719 5.5391 3.1016 9.0352 8.8906 9.1992 15.238z" fill="#868684"/>
</svg>
